<svg width="38" height="34" viewBox="0 0 38 34" fill="none" xmlns="http://www.w3.org/2000/svg">
<path d="M16.944 7.05414C17.6097 6.98627 18.2793 6.95238 18.9495 6.95264C26.3145 6.95264 32.2142 10.9892 34.7408 16.6861C34.1291 18.0718 33.3027 19.3763 32.2852 20.5628M10.2959 9.06479C7.07444 10.796 4.57942 13.4782 3.1582 16.6861C5.68481 22.3829 11.5844 26.4195 18.9495 26.4195C22.0006 26.4337 24.9963 25.702 27.6031 24.3059M15.6017 13.7382C15.1618 14.1256 14.8128 14.5855 14.5747 15.0917C14.3366 15.5978 14.2141 16.1403 14.2141 16.6882C14.2141 17.236 14.3366 17.7785 14.5747 18.2846C14.8128 18.7908 15.1618 19.2507 15.6017 19.6381C16.0417 20.0255 16.564 20.3328 17.1388 20.5424C17.7136 20.7521 18.3297 20.86 18.9519 20.86C19.574 20.86 20.1901 20.7521 20.7649 20.5424C21.3397 20.3328 21.862 20.0255 22.302 19.6381" stroke="black" stroke-width="1.5" stroke-linecap="round" stroke-linejoin="round"/>
<path d="M6.31641 5.56201L31.5825 27.8098" stroke="black" stroke-width="1.5" stroke-linecap="round"/>
</svg>
