<svg width="39" height="23" viewBox="0 0 39 23" fill="none" xmlns="http://www.w3.org/2000/svg">
<path d="M26.546 11.5617L36.2592 4.13096V18.9077L26.546 11.5617ZM14.0298 12.8201L17.4407 15.4273C17.976 15.8278 18.674 16.0697 19.4367 16.0697H19.4636H19.4841C20.2484 16.0697 20.9464 15.8264 21.488 15.4231L21.4833 15.4259L24.8942 12.8187L35.2628 20.6597H3.66599L14.0298 12.8201ZM3.65177 2.36921H35.2817L20.0889 13.9881C19.9188 14.1083 19.7069 14.1731 19.4889 14.1717H19.4667H19.4462C19.2274 14.1731 19.0149 14.1077 18.8446 13.9868L18.8461 13.9881L3.65177 2.36921ZM2.67114 4.12957L12.3828 11.5603L2.67114 18.9021V4.12957ZM36.7803 0.735384C36.4013 0.568526 35.956 0.471191 35.4838 0.471191H3.45122C2.99373 0.472786 2.54271 0.566483 2.13265 0.745118L2.15002 0.738165C1.66028 0.951581 1.24786 1.28106 0.95913 1.68957C0.6704 2.09807 0.516808 2.56939 0.515625 3.05055V19.9756C0.516461 20.6606 0.825849 21.3173 1.3759 21.8016C1.92596 22.286 2.67175 22.5584 3.44965 22.5591H35.4791C36.257 22.5584 37.0028 22.286 37.5528 21.8016C38.1029 21.3173 38.4123 20.6606 38.4131 19.9756V3.05055C38.4131 2.03966 37.7515 1.16366 36.7882 0.742337L36.7708 0.735384H36.7803Z" fill="black"/>
</svg>
