<svg width="30" height="30" viewBox="0 0 30 30" fill="none" xmlns="http://www.w3.org/2000/svg">
<path d="M19.1111 18.3461C18.9277 18.2861 17.7681 17.7634 18.4927 15.5607H18.4823C20.3711 13.6153 21.8146 10.4849 21.8146 7.40301C21.8146 2.66416 18.6634 0.179932 15.0011 0.179932C11.3365 0.179932 8.20267 2.66301 8.20267 7.40301C8.20267 10.4976 9.63805 13.6407 11.5384 15.5815C12.2792 17.5245 10.9546 18.2457 10.6777 18.3472C6.84229 19.7342 2.34229 22.2622 2.34229 24.758V25.6938C2.34229 29.0942 8.93536 29.8672 15.0369 29.8672C21.1477 29.8672 27.6577 29.0942 27.6577 25.6938V24.758C27.6577 22.1872 23.1357 19.6788 19.1111 18.3461Z" fill="black"/>
</svg>
