<svg width="16" height="16" viewBox="0 0 16 16" fill="none" xmlns="http://www.w3.org/2000/svg">
<path d="M0.666722 6.66686C0.489897 6.66686 0.320313 6.59662 0.195279 6.47159C0.0702439 6.34655 0 6.17697 0 6.00014V0.667699C0 0.490873 0.0702439 0.32129 0.195279 0.196255C0.320313 0.0712204 0.489897 0.000976562 0.666722 0.000976562H6.0005C6.17733 0.000976562 6.34691 0.0712204 6.47194 0.196255C6.59698 0.32129 6.66722 0.490873 6.66722 0.667699V6.00014C6.66722 6.17697 6.59698 6.34655 6.47194 6.47159C6.34691 6.59662 6.17733 6.66686 6.0005 6.66686H0.666722ZM10.0008 6.66686C9.82401 6.66686 9.65442 6.59662 9.52939 6.47159C9.40436 6.34655 9.33411 6.17697 9.33411 6.00014V0.667699C9.33411 0.490873 9.40436 0.32129 9.52939 0.196255C9.65442 0.0712204 9.82401 0.000976562 10.0008 0.000976562H15.3333C15.5101 0.000976562 15.6797 0.0712204 15.8047 0.196255C15.9298 0.32129 16 0.490873 16 0.667699V6.00014C16 6.17697 15.9298 6.34655 15.8047 6.47159C15.6797 6.59662 15.5101 6.66686 15.3333 6.66686H10.0008ZM0.666722 16.001C0.489897 16.001 0.320313 15.9307 0.195279 15.8057C0.0702439 15.6807 0 15.5111 0 15.3343V10.0005C0 9.82365 0.0702439 9.65407 0.195279 9.52903C0.320313 9.404 0.489897 9.33375 0.666722 9.33375H6.0005C6.17733 9.33375 6.34691 9.404 6.47194 9.52903C6.59698 9.65407 6.66722 9.82365 6.66722 10.0005V15.3343C6.66722 15.5111 6.59698 15.6807 6.47194 15.8057C6.34691 15.9307 6.17733 16.001 6.0005 16.001H0.666722ZM10.0008 16.001C9.82401 16.001 9.65442 15.9307 9.52939 15.8057C9.40436 15.6807 9.33411 15.5111 9.33411 15.3343V10.0005C9.33411 9.82365 9.40436 9.65407 9.52939 9.52903C9.65442 9.404 9.82401 9.33375 10.0008 9.33375H15.3333C15.5101 9.33375 15.6797 9.404 15.8047 9.52903C15.9298 9.65407 16 9.82365 16 10.0005V15.3343C16 15.5111 15.9298 15.6807 15.8047 15.8057C15.6797 15.9307 15.5101 16.001 15.3333 16.001H10.0008Z" fill="black"/>
</svg>
