<svg width="16" height="16" viewBox="0 0 16 16" fill="none" xmlns="http://www.w3.org/2000/svg">
<path d="M5.35933 3.05145L7.32733 4.75679C7.38154 4.80373 7.42501 4.86178 7.4548 4.927C7.48459 4.99222 7.50001 5.06308 7.5 5.13479V10.3328H5.83333C5.70073 10.3328 5.57355 10.3855 5.47978 10.4792C5.38601 10.573 5.33333 10.7002 5.33333 10.8328V12.9995H3.16667C3.12246 12.9995 3.08007 12.9819 3.04882 12.9506C3.01756 12.9194 3 12.877 3 12.8328V5.13479C2.99999 5.06308 3.01541 4.99222 3.0452 4.927C3.07499 4.86178 3.11847 4.80373 3.17267 4.75679L5.14 3.05145C5.17033 3.0251 5.20915 3.01058 5.24933 3.01058C5.28951 3.01058 5.32901 3.0251 5.35933 3.05145ZM7.49933 11.3328V12.9995H6.33333V11.3335L7.49933 11.3328ZM8.49933 11.3328H9.666V12.9995H8.49933V11.3328ZM10.6667 13.0001V10.8335C10.6667 10.7008 10.614 10.5737 10.5202 10.4799C10.4265 10.3861 10.2993 10.3335 10.1667 10.3335H8.5V5.13479C8.49999 5.06308 8.51541 4.99222 8.5452 4.927C8.57499 4.86178 8.61847 4.80373 8.67267 4.75679L10.6407 3.05145C10.671 3.0251 10.7098 3.01058 10.75 3.01058C10.7902 3.01058 10.829 3.0251 10.8593 3.05145L12.8273 4.75679C12.8815 4.80373 12.925 4.86178 12.9548 4.927C12.9846 4.99222 13 5.06308 13 5.13479V12.8328C13 12.877 12.9824 12.9194 12.9512 12.9506C12.9199 12.9819 12.8775 12.9995 12.8333 12.9995L10.6667 13.0001ZM3.16667 14.0001H12.8333C13.1428 14.0001 13.4395 13.8772 13.6583 13.6584C13.8771 13.4396 14 13.1429 14 12.8335V5.13479C13.9999 4.91979 13.9536 4.70732 13.8643 4.51178C13.7749 4.31625 13.6445 4.1422 13.482 4.00145L11.514 2.29545C11.3019 2.11167 11.0307 2.0105 10.75 2.0105C10.4693 2.0105 10.1981 2.11167 9.986 2.29545L8.018 4.00079L8 4.01679L7.982 4.00012L6.014 2.29545C5.8019 2.11167 5.53065 2.0105 5.25 2.0105C4.96935 2.0105 4.6981 2.11167 4.486 2.29545L2.518 4.00079C2.35548 4.14154 2.22512 4.31558 2.13574 4.51112C2.04637 4.70666 2.00008 4.91912 2 5.13412V12.8335C2 13.4781 2.52267 14.0001 3.16667 14.0001ZM5.91933 6.00012C5.91933 6.17693 5.8491 6.3465 5.72407 6.47152C5.59905 6.59655 5.42948 6.66679 5.25267 6.66679C5.07586 6.66679 4.90629 6.59655 4.78126 6.47152C4.65624 6.3465 4.586 6.17693 4.586 6.00012C4.586 5.82331 4.65624 5.65374 4.78126 5.52872C4.90629 5.40369 5.07586 5.33345 5.25267 5.33345C5.42948 5.33345 5.59905 5.40369 5.72407 5.52872C5.8491 5.65374 5.91933 5.82331 5.91933 6.00012ZM5.25267 9.33145C5.42948 9.33145 5.59905 9.26121 5.72407 9.13619C5.8491 9.01117 5.91933 8.8416 5.91933 8.66479C5.91933 8.48797 5.8491 8.31841 5.72407 8.19338C5.59905 8.06836 5.42948 7.99812 5.25267 7.99812C5.07586 7.99812 4.90629 8.06836 4.78126 8.19338C4.65624 8.31841 4.586 8.48797 4.586 8.66479C4.586 8.8416 4.65624 9.01117 4.78126 9.13619C4.90629 9.26121 5.07586 9.33145 5.25267 9.33145ZM10.7473 6.66679C10.5705 6.66679 10.401 6.59655 10.2759 6.47152C10.1509 6.3465 10.0807 6.17693 10.0807 6.00012C10.0807 5.82331 10.1509 5.65374 10.2759 5.52872C10.401 5.40369 10.5705 5.33345 10.7473 5.33345C10.9241 5.33345 11.0937 5.40369 11.2187 5.52872C11.3438 5.65374 11.414 5.82331 11.414 6.00012C11.414 6.17693 11.3438 6.3465 11.2187 6.47152C11.0937 6.59655 10.9241 6.66679 10.7473 6.66679ZM10.0807 8.66479C10.0807 8.8416 10.1509 9.01117 10.2759 9.13619C10.401 9.26121 10.5705 9.33145 10.7473 9.33145C10.9241 9.33145 11.0937 9.26121 11.2187 9.13619C11.3438 9.01117 11.414 8.8416 11.414 8.66479C11.414 8.48797 11.3438 8.31841 11.2187 8.19338C11.0937 8.06836 10.9241 7.99812 10.7473 7.99812C10.5705 7.99812 10.401 8.06836 10.2759 8.19338C10.1509 8.31841 10.0807 8.48797 10.0807 8.66479Z" fill="black"/>
</svg>
