<svg width="16" height="16" viewBox="0 0 16 16" fill="none" xmlns="http://www.w3.org/2000/svg">
<g clip-path="url(#clip0_376_1673)">
<path d="M5.90941 0.632568L3.76878 3.36882H8.05003L5.90941 0.632568ZM12.95 0.715068C12.4875 1.82038 11.375 1.97726 10.4063 2.05069C10.2094 3.19069 9.60316 3.30632 8.62503 3.78444L9.85003 3.72194L9.62503 5.28444C10 4.35944 10.2469 3.40944 10.8438 2.52132L11.2688 2.41476L11.125 4.28444L11.8844 2.26101C14.9532 2.02913 11.675 5.11257 10.7688 6.19694L11.6844 5.63757L12.0282 6.92194C12.0125 5.70944 12.8094 3.94069 13.8125 3.37194C14.8094 4.14694 14.2344 5.54069 14.125 6.47507L14.525 5.85007L15.3094 6.98132C14.8282 5.80632 14.7063 4.88757 14.9282 3.69069C14.1438 3.07726 13.4375 2.44444 12.9813 1.74444L13.1563 1.46038L14.8719 2.28601L13.45 0.979131L13.6125 0.715068H12.95ZM4.19066 3.93132V7.03132L5.60941 8.45007L5.20941 8.85007L2.9041 6.54382L0.691284 8.65007H1.19003V15.3688H4.40941V12.4313H2.22972L3.73128 10.9313H1.62753V8.36882H4.19066V9.86882H8.88128L9.96878 8.43132H6.90941V7.90007H7.62816V3.93132H4.19066ZM4.62816 4.36882H7.19066V7.43132H4.62816V4.65007V4.36882ZM5.19066 4.93132V5.36882H5.62816V4.93132H5.19066ZM6.19066 4.93132V5.36882H6.62816V4.93132H6.19066ZM5.19066 5.93132V6.86882H5.62816V5.93132H5.19066ZM6.19066 5.93132V6.86882H6.62816V5.93132H6.19066ZM8.19066 6.93132V7.86882H10.3938L10.9094 7.18444L12.9375 9.86882H15.3094L13.2625 6.93132H8.19066ZM10.9094 8.11569L8.63441 11.1313L8.18441 10.7938L8.45941 10.4313H4.19066V10.8688H7.02503L8.02503 11.8688H9.63753C9.55003 11.6876 9.50316 11.4876 9.50316 11.2751C9.50316 10.5032 10.1375 9.86882 10.9094 9.86882C11.6813 9.86882 12.3157 10.5032 12.3157 11.2751C12.3157 11.4876 12.2688 11.6876 12.1813 11.8688H14.6219L14.6282 11.8782V10.4313H13.3594L13.6344 10.7938L13.1844 11.1313L10.9094 8.11569ZM2.19003 8.93132V9.36882H2.62753V8.93132H2.19003ZM3.19066 8.93132V9.36882H3.62816V8.93132H3.19066ZM2.19003 9.93132V10.3688H2.62753V9.93132H2.19003ZM3.19066 9.93132V10.3688H3.62816V9.93132H3.19066ZM10.6282 10.4782C10.3875 10.5626 10.1969 10.7532 10.1125 10.9938H10.6282V10.4782ZM11.1907 10.4782V10.9938H11.7063C11.6219 10.7532 11.4313 10.5626 11.1907 10.4782ZM4.02503 11.4313L3.58753 11.8688H7.23128L6.79378 11.4313H4.02503ZM10.1125 11.5563C10.1969 11.7969 10.3875 11.9876 10.6282 12.0719V11.5563H10.1125ZM11.1907 11.5563V12.0719C11.4313 11.9876 11.6219 11.7969 11.7063 11.5563H11.1907ZM6.40941 12.4313V15.3688H9.62816V13.9313H9.27503L8.07503 12.4313H6.40941ZM8.79378 12.4313L9.54378 13.3688H14.9469L14.3219 12.4313H8.79378ZM1.62753 12.8688H3.69066V14.9313H1.62753V13.1501V12.8688ZM4.90941 12.8688V13.4313H5.90941V12.8688H4.90941ZM2.19003 13.4313V14.3688H3.12816V13.4313H2.19003ZM10.1907 13.9313V15.3688H11.2844V13.9313H10.1907ZM11.8469 13.9313V15.3688H12.9719V13.9313H11.8469ZM13.5344 13.9313V15.3688H14.6282V13.9313H13.5344Z" fill="black"/>
</g>
<defs>
<clipPath id="clip0_376_1673">
<rect width="16" height="16" fill="white"/>
</clipPath>
</defs>
</svg>
