<svg width="23" height="23" viewBox="0 0 23 23" fill="none" xmlns="http://www.w3.org/2000/svg">
<path d="M21.4194 12.1714C21.8177 12.9274 22.063 13.7545 22.1415 14.6055C22.2199 15.4564 22.1299 16.3144 21.8766 17.1305C21.6233 17.9467 21.2117 18.7049 20.6652 19.3618C20.1187 20.0188 19.4481 20.5616 18.6917 20.9592L16.6028 22.0599L16.0891 22.33C15.6172 22.5784 15.0945 22.7149 14.5614 22.7292C14.0284 22.7435 13.4991 22.635 13.0146 22.4123L4.85655 18.927L5.62476 16.6479L10.4765 17.5851L7.96387 12.8106L3.9188 5.12456L5.88936 4.08784L9.93447 11.7762L10.9078 11.2642L9.12456 7.87334L11.094 6.83721L12.8772 10.2281L13.8506 9.71611L12.4737 7.09902L14.4443 6.0623L15.8212 8.67939L16.7951 8.16299L15.8501 6.36191L17.8201 5.32803L18.7651 7.12905L21.4188 12.173L21.4194 12.1714ZM2.57749 6.16182C2.16813 5.75209 1.88932 5.23028 1.77627 4.66224C1.66321 4.0942 1.72097 3.5054 1.94227 2.97016C2.16356 2.43492 2.53846 1.97724 3.01964 1.65488C3.50082 1.33253 4.06672 1.15995 4.6459 1.15894C5.11525 1.15946 5.57762 1.27256 5.99422 1.48874C6.41082 1.70492 6.76949 2.01788 7.04012 2.40134C7.31075 2.78481 7.48546 3.22759 7.54958 3.69254C7.61369 4.15749 7.56535 4.63104 7.4086 5.07344L7.92559 6.05063C8.27141 5.4709 8.45754 4.80993 8.46507 4.13493C8.47261 3.45993 8.30127 2.79498 7.96847 2.20767C7.63568 1.62036 7.1533 1.13165 6.57038 0.791227C5.98746 0.450801 5.3248 0.270803 4.64976 0.269531C3.66057 0.26967 2.71 0.653526 1.99809 1.34032C1.28619 2.02711 0.868454 2.96329 0.832806 3.95184C0.797158 4.94039 1.14637 5.90422 1.80696 6.64051C2.46755 7.3768 3.388 7.82812 4.37461 7.89951L3.85484 6.91113C3.37165 6.77548 2.93167 6.51738 2.57749 6.16182Z" fill="#B9B9B9"/>
</svg>
