<svg width="16" height="16" viewBox="0 0 16 16" fill="none" xmlns="http://www.w3.org/2000/svg">
<path d="M4.00004 12.6667H5.33337V14H4.00004V12.6667ZM8.00004 2L1.33337 5.33333V14H2.66671V8.66667H13.3334V14H14.6667V5.33333L8.00004 2ZM5.33337 7.33333H2.66671V6H5.33337V7.33333ZM9.33337 7.33333H6.66671V6H9.33337V7.33333ZM13.3334 7.33333H10.6667V6H13.3334V7.33333ZM4.00004 10H5.33337V11.3333H4.00004V10ZM6.66671 10H8.00004V11.3333H6.66671V10ZM6.66671 12.6667H8.00004V14H6.66671V12.6667ZM9.33337 12.6667H10.6667V14H9.33337V12.6667Z" fill="black"/>
</svg>
