<svg width="16" height="16" viewBox="0 0 16 16" fill="none" xmlns="http://www.w3.org/2000/svg">
<g clip-path="url(#clip0_376_1654)">
<path d="M15.9667 15.2998H14.9V9.89984L15.056 10.0753C15.1563 10.1879 15.2922 10.2511 15.4338 10.251C15.5755 10.2508 15.7113 10.1874 15.8113 10.0746C15.9114 9.96181 15.9676 9.80892 15.9674 9.64956C15.9673 9.49021 15.9109 9.33743 15.8107 9.22485L9.254 1.85095C9.05398 1.62607 8.78278 1.49976 8.5 1.49976C8.21722 1.49976 7.94602 1.62607 7.746 1.85095L1.18933 9.22485C1.08935 9.33743 1.03321 9.49009 1.03327 9.64924C1.03334 9.80838 1.08959 9.96098 1.18967 10.0735C1.28974 10.1859 1.42544 10.2491 1.5669 10.249C1.70837 10.249 1.84401 10.1857 1.944 10.0731L2.1 9.89984V15.2998H1.03333C0.891885 15.2998 0.756229 15.363 0.65621 15.4755C0.55619 15.588 0.5 15.7406 0.5 15.8998C0.5 16.0589 0.55619 16.2115 0.65621 16.324C0.756229 16.4365 0.891885 16.4998 1.03333 16.4998H15.9667C16.1081 16.4998 16.2438 16.4365 16.3438 16.324C16.4438 16.2115 16.5 16.0589 16.5 15.8998C16.5 15.7406 16.4438 15.588 16.3438 15.4755C16.2438 15.363 16.1081 15.2998 15.9667 15.2998ZM3.16667 8.69986L8.5 2.69993L13.8333 8.69986V15.2998H10.6333V11.0998C10.6333 10.9407 10.5771 10.7881 10.4771 10.6756C10.3771 10.563 10.2414 10.4998 10.1 10.4998H6.9C6.75855 10.4998 6.6229 10.563 6.52288 10.6756C6.42286 10.7881 6.36667 10.9407 6.36667 11.0998V15.2998H3.16667V8.69986ZM9.56667 15.2998H7.43333V11.6998H9.56667V15.2998Z" fill="black"/>
</g>
<defs>
<clipPath id="clip0_376_1654">
<rect width="16" height="16" fill="white"/>
</clipPath>
</defs>
</svg>
