<svg width="16" height="16" viewBox="0 0 16 16" fill="none" xmlns="http://www.w3.org/2000/svg">
<path d="M13.3333 13.9999H11.3333V12.6666H13.3333V13.9999ZM13.3333 11.3333H11.3333V9.99992H13.3333V11.3333ZM13.3333 8.66658H11.3333V7.33325H13.3333V8.66658ZM16 5.19992C15.7333 2.99992 13.8667 1.33325 11.6667 1.33325C10.5333 1.33325 9.4 1.79992 8.6 2.59992C8.13333 3.06659 7.8 3.53325 7.6 4.13325L10.4 5.99992H14.6667V14.6666H16V5.19992ZM8.86667 4.66658C9.26667 3.46659 10.4 2.66659 11.6667 2.66659C12.9333 2.66659 14.0667 3.46659 14.4667 4.66658H8.86667ZM5 3.99992L0 7.33325V14.6666H10V7.33325L5 3.99992ZM8.66667 13.3333H6.66667V9.33325H3.33333V13.3333H1.33333V7.99992L5 5.66658L8.66667 7.99992V13.3333Z" fill="black"/>
</svg>
