<svg width="31" height="31" viewBox="0 0 31 31" fill="none" xmlns="http://www.w3.org/2000/svg">
<path fill-rule="evenodd" clip-rule="evenodd" d="M15.5001 0.916588C7.44571 0.916588 0.916748 7.44555 0.916748 15.4999C0.916748 23.5543 7.44571 30.0833 15.5001 30.0833C23.5545 30.0833 30.0834 23.5543 30.0834 15.4999C30.0834 7.44555 23.5545 0.916588 15.5001 0.916588ZM15.5001 2.66659C18.9037 2.66659 22.1679 4.01867 24.5746 6.42538C26.9813 8.8321 28.3334 12.0963 28.3334 15.4999C28.3334 18.9035 26.9813 22.1677 24.5746 24.5745C22.1679 26.9812 18.9037 28.3333 15.5001 28.3333C12.0965 28.3333 8.83226 26.9812 6.42554 24.5745C4.01883 22.1677 2.66675 18.9035 2.66675 15.4999C2.66675 12.0963 4.01883 8.8321 6.42554 6.42538C8.83226 4.01867 12.0965 2.66659 15.5001 2.66659ZM18.4153 10.4876L16.8899 8.93742L11.548 14.4455C11.2761 14.7292 11.1244 15.107 11.1244 15.4999C11.1244 15.8928 11.2761 16.2706 11.548 16.5543L16.8899 22.0624L18.4167 20.5122L13.5751 15.4999L18.4167 10.4862L18.4153 10.4876Z" fill="white"/>
</svg>
