<svg width="18" height="18" viewBox="0 0 18 18" fill="none" xmlns="http://www.w3.org/2000/svg">
<path fill-rule="evenodd" clip-rule="evenodd" d="M8.61525 2.35348C8.86378 2.26303 9.13622 2.26303 9.38475 2.35348L15.0098 4.39873C15.2268 4.47771 15.4142 4.62156 15.5466 4.81075C15.6791 4.99994 15.7501 5.2253 15.75 5.45623V14.625C15.75 14.9234 15.6315 15.2095 15.4205 15.4205C15.2095 15.6315 14.9234 15.75 14.625 15.75H3.375C3.07663 15.75 2.79048 15.6315 2.5795 15.4205C2.36853 15.2095 2.25 14.9234 2.25 14.625V5.45623C2.24993 5.2253 2.32093 4.99994 2.45336 4.81075C2.5858 4.62156 2.77324 4.47771 2.99025 4.39873L8.61525 2.35348ZM9 3.41098L3.375 5.45623V11.25H7.875V10.125C7.875 9.82661 7.99353 9.54047 8.2045 9.32949C8.41548 9.11851 8.70163 8.99998 9 8.99998H14.625V5.45623L9 3.41098ZM6.1875 13.5V14.625H5.0625V13.5H6.1875ZM11.25 14.625H12.375V12.375H11.25V14.625Z" fill="black"/>
</svg>
